<svg xmlns="http://www.w3.org/2000/svg" viewBox="0 0 128 160" x="0px" y="0px"><title>35</title><g data-name="1"><path fill="#fff" d="M40.583,93.90186a2.106,2.106,0,0,1,0,2.97839L38.3053,99.15918a2.10518,2.10518,0,1,1-2.9784-2.976l2.2782-2.27893a2.10772,2.10772,0,0,1,2.97791-.00244Zm71.81866-79.9181V114.01654a2.10514,2.10514,0,0,1-2.10626,2.10474H63.81726a2.10508,2.10508,0,0,1-2.106-2.10474v-9.73108a7.88574,7.88574,0,0,1-6.03509.00031v9.73077a2.10519,2.10519,0,0,1-2.10608,2.10474H17.70422a2.105,2.105,0,0,1-2.10589-2.10474V13.98376a2.10509,2.10509,0,0,1,2.10589-2.105h92.59119A2.10521,2.10521,0,0,1,112.40167,13.98376Zm-60.9375,86.27649A7.91453,7.91453,0,0,1,50.6911,96.885V85.0014H45.53918a2.10476,2.10476,0,0,1-2.05535-1.64764l-3.67-16.49518a2.10317,2.10317,0,0,1,2.05512-2.56225H56.587V16.08844H19.8103v95.82343H51.46417ZM62.48425,85.0014H54.90314V96.885a3.79056,3.79056,0,1,0,7.58111,0Zm2.10608-4.20984h5.56928l2.7326-12.28533H44.49512l2.7326,12.28533H64.59033ZM97.577,16.08844H60.79938V64.29633H75.51849a2.10316,2.10316,0,0,1,2.05536,2.56225L73.90356,83.35376a2.10457,2.10457,0,0,1-2.05523,1.64764h-5.1521V96.885a7.91616,7.91616,0,0,1-.77289,3.37524v11.65162H97.577Zm10.61248,0h-6.40033v95.82343h6.40033ZM44.25812,55.24811a2.09367,2.09367,0,0,0,1.48773-.61438l1.64642-1.64533a2.10582,2.10582,0,1,0-2.97564-2.98053l-1.64643,1.6449a2.10539,2.10539,0,0,0,1.48792,3.59534Zm-8.41223-24.5539a2.10989,2.10989,0,0,0-2.97828-.00262l-2.2171,2.21606a2.10678,2.10678,0,0,0,2.978,2.98084l2.21735-2.21619A2.10559,2.10559,0,0,0,35.84589,30.69421Zm44.683,60.84717a2.102,2.102,0,0,0-1.488.61389l-2.27771,2.27661a2.1068,2.1068,0,0,0,2.9784,2.98053L82.01929,95.136a2.10541,2.10541,0,0,0-1.49036-3.59461Zm-7.15521-53.454a2.09839,2.09839,0,0,0,1.48907-.61682l6.24207-6.24176a2.10511,2.10511,0,0,0-2.97821-2.97595l-6.24207,6.24194a2.10471,2.10471,0,0,0,1.48914,3.59259Zm7.96454,19.73969a2.10794,2.10794,0,0,0,2.978-.00251l3.55793-3.55877a2.10513,2.10513,0,1,0-2.97827-2.976L81.33826,54.849A2.1058,2.1058,0,0,0,81.33826,57.82709Z"/></g></svg>