<svg xmlns="http://www.w3.org/2000/svg" viewBox="0 0 128 160" x="0px" y="0px"><g data-name="1"><path fill="#fff" d="M119.4769,59.07181c-.01734-.05725-.03851-.11035-.06037-.16577a2.14333,2.14333,0,0,0-.22265-.42243c-.028-.04156-.05023-.08471-.08106-.12408a2.14739,2.14739,0,0,0-.40167-.40216c-.01141-.00867-.02515-.01313-.03686-.02149-.03333-.024-.07142-.03949-.10621-.06164a2.1537,2.1537,0,0,0-.46441-.22187c-.03052-.01025-.05438-.03173-.08563-.04089l-8.82788-2.57428,6.11029-1.7821a2.16508,2.16508,0,0,0,1.56048-2.07929V42.926a2.14767,2.14767,0,0,0-.10162-.61865c-.01721-.05737-.0387-.11059-.06018-.16607a2.14654,2.14654,0,0,0-.22254-.42145c-.02807-.04175-.05035-.08551-.08148-.125a2.14525,2.14525,0,0,0-.40155-.40222c-.01141-.00855-.02484-.01294-.03656-.02118-.03393-.02466-.073-.04041-.1084-.06287a2.16678,2.16678,0,0,0-.46173-.22064c-.03082-.01056-.05481-.032-.08642-.04138L64.2067,25.94492a2.13326,2.13326,0,0,0-1.212,0L11.9006,40.84653c-.0318.00934-.05615.03131-.08758.04187a2.16485,2.16485,0,0,0-.45953.21954c-.036.02289-.07538.03882-.1095.06348-.01172.00824-.02515.01263-.0365.02118a2.14585,2.14585,0,0,0-.40155.40234c-.03113.03937-.05341.08295-.08142.12439a2.14138,2.14138,0,0,0-.22235.42194c-.02179.05548-.04328.1087-.06037.16607a2.14556,2.14556,0,0,0-.10156.61865v8.24982A2.165,2.165,0,0,0,11.9006,53.2551l8.82734,2.57428-6.111,1.7821c-.03192.00916-.05627.03113-.0874.04169a2.16074,2.16074,0,0,0-.46521.22217c-.03339.02154-.07019.03619-.1026.05926-.01215.00885-.02686.01343-.039.02277a2.15015,2.15015,0,0,0-.40143.403c-.03015.03858-.05212.08124-.07959.12189a2.16707,2.16707,0,0,0-.22345.42383c-.02185.05542-.043.10852-.06036.16577a2.15489,2.15489,0,0,0-.1015.61883V67.9393a2.16855,2.16855,0,0,0,1.56054,2.08026l5.78455,1.68714L9.98184,74.74551c-.0332.00983-.05884.0326-.09118.04377a2.11229,2.11229,0,0,0-.443.21258c-.04168.02606-.087.04535-.12689.07392-.00964.00732-.02118.01092-.03082.01818a2.14521,2.14521,0,0,0-.399.39777c-.03461.04376-.05945.0921-.09058.13843a2.13353,2.13353,0,0,0-.213.40393c-.02386.05987-.04693.11755-.06524.17969a2.14711,2.14711,0,0,0-.096.584c-.00012.00964-.00458.01849-.00458.02826l.00128.00806v8.24164a2.16867,2.16867,0,0,0,1.56049,2.08038l51.09375,14.9021a2.21032,2.21032,0,0,0,1.2121,0l51.094-14.9021a2.16854,2.16854,0,0,0,1.56018-2.08038v-8.2497a2.14194,2.14194,0,0,0-.10144-.61884c-.01727-.05719-.03876-.11029-.06024-.1654a2.14062,2.14062,0,0,0-.22186-.421c-.02845-.04218-.05121-.08612-.08283-.12622a2.153,2.153,0,0,0-.40106-.40064c-.01056-.008-.02277-.01184-.03333-.01941-.03778-.02734-.08075-.04534-.12024-.07019a2.12658,2.12658,0,0,0-.44915-.21569c-.032-.01075-.05719-.03333-.09-.04316l-5.78412-1.68707L118.018,70.01956a2.16861,2.16861,0,0,0,1.56036-2.08026V59.69064A2.14905,2.14905,0,0,0,119.4769,59.07181Zm-9.80176.61883L66.31808,72.334,22.96024,59.69064l5.50347-1.6051L62.99466,68.156a2.16063,2.16063,0,0,0,1.212,0l37.24774-10.86292ZM63.60049,30.28006l43.358,12.64593-43.358,12.64612L20.24265,42.926ZM14.673,49.55081V45.8143L62.99466,59.907a2.13326,2.13326,0,0,0,1.212,0L112.52829,45.8143v3.73651L63.60049,63.82047ZM28.14035,73.96408l37.5719,10.95758a2.182,2.182,0,0,0,1.21185,0l32.93616-9.606,5.17932,1.50995L61.68332,89.47079,18.32626,76.82535Zm82.47046,5.75122v3.73529L61.68332,97.72043,12.75552,83.45059v-3.735l48.3216,14.093a2.18724,2.18724,0,0,0,1.2121,0Zm4.63507-13.4013L99.256,70.97751l-.00238.00036L66.31808,80.584,17.38931,66.314V62.5787l48.32294,14.093a2.182,2.182,0,0,0,1.21185,0l48.32178-14.093Z"/></g></svg>