<svg xmlns="http://www.w3.org/2000/svg" data-name="Layer 1" viewBox="0 0 100 125" x="0px" y="0px"><path fill="#fff" d="M87.51,44.7a1,1,0,0,1,0-.4l.06-.18.09-.18.13-.15a.57.57,0,0,1,.15-.12l.17-.1.19,0a.86.86,0,0,1,.39,0l.19,0a1,1,0,0,1,.17.1.61.61,0,0,1,.16.12,1.05,1.05,0,0,1,.29.71,1.36,1.36,0,0,1,0,.2.82.82,0,0,1-.06.19.7.7,0,0,1-.09.17l-.12.15-.16.13-.17.09-.19,0a.62.62,0,0,1-.19,0,1,1,0,0,1-.71-.29l-.13-.15-.09-.17Zm1-10.2a1,1,0,0,0,.71-.29,1,1,0,0,0,.29-.71,1.05,1.05,0,0,0-.29-.71,1,1,0,0,0-.71-.29,1,1,0,0,0-.71.29,1,1,0,0,0-.29.71,1,1,0,0,0,.29.71A1,1,0,0,0,88.5,34.5Zm-.93-11.61.09.17.13.15a1,1,0,0,0,.71.3,1,1,0,0,0,.71-.3,1,1,0,0,0,.29-.71,1,1,0,0,0-1-1,1,1,0,0,0-.71.29l-.13.15-.09.18-.06.19a1.21,1.21,0,0,0,0,.19,1.34,1.34,0,0,0,0,.2ZM55.5,34.5a1,1,0,0,0,.71-.29,1,1,0,0,0,.29-.71,1,1,0,1,0-2,0,1,1,0,0,0,.29.71A1,1,0,0,0,55.5,34.5Zm-.93-11.61.09.17.13.15.15.13.17.09.19.06.2,0,.19,0,.19-.06.18-.09.15-.13a1,1,0,0,0,.29-.71,1,1,0,0,0-.29-.71l-.15-.12a.76.76,0,0,0-.18-.09.6.6,0,0,0-.19-.06.86.86,0,0,0-.39,0l-.19.06a.7.7,0,0,0-.17.09l-.15.12-.13.15-.09.18a1.05,1.05,0,0,0,0,.19.62.62,0,0,0,0,.19.68.68,0,0,0,0,.2A1.33,1.33,0,0,0,54.57,22.89Zm33-11,.09.17a1.39,1.39,0,0,0,.28.28l.17.09.19.06.2,0,.19,0,.19-.06.17-.09.16-.13s.08-.1.12-.15a.7.7,0,0,0,.09-.17.82.82,0,0,0,.06-.19,1.36,1.36,0,0,0,0-.2,1.23,1.23,0,0,0,0-.19.6.6,0,0,0-.06-.19.56.56,0,0,0-.09-.17l-.12-.16a1,1,0,0,0-.91-.27l-.19.06a.7.7,0,0,0-.17.09l-.15.12a1,1,0,0,0-.13.16l-.09.17-.06.19a1.21,1.21,0,0,0,0,.19,1.34,1.34,0,0,0,0,.2Zm-11,33,.09.17.13.15a1,1,0,0,0,.71.29.62.62,0,0,0,.19,0l.19,0,.17-.09.16-.13a1.58,1.58,0,0,0,.12-.15.7.7,0,0,0,.09-.17.82.82,0,0,0,.06-.19,1.36,1.36,0,0,0,0-.2,1.05,1.05,0,0,0-.29-.71.61.61,0,0,0-.16-.12,1,1,0,0,0-.17-.1l-.19,0a.86.86,0,0,0-.39,0l-.19,0-.17.1-.15.12a1,1,0,0,0-.3.71,1.36,1.36,0,0,0,0,.2Zm-11,0,.1.17a.79.79,0,0,0,.12.15,1,1,0,0,0,.71.29.71.71,0,0,0,.2,0l.18,0,.18-.09.15-.13a1.58,1.58,0,0,0,.12-.15.7.7,0,0,0,.09-.17.82.82,0,0,0,.06-.19.68.68,0,0,0,0-.2,1,1,0,0,0-.29-.71l-.15-.12-.18-.1-.18,0a.9.9,0,0,0-.4,0l-.18,0-.18.1a.57.57,0,0,0-.15.12.79.79,0,0,0-.12.15,1.62,1.62,0,0,0-.1.18,1.21,1.21,0,0,0,0,.18,1,1,0,0,0,0,.4A1.8,1.8,0,0,0,65.57,44.89Zm-11,0,.09.17.13.15a1,1,0,0,0,.71.29.58.58,0,0,0,.19,0l.19,0,.18-.09.15-.13a1.58,1.58,0,0,0,.12-.15l.1-.17a1.8,1.8,0,0,0,0-.19.68.68,0,0,0,0-.2,1,1,0,0,0-.29-.71l-.15-.12-.18-.1-.19,0a.86.86,0,0,0-.39,0l-.19,0-.17.1-.15.12a1,1,0,0,0-.29.71.68.68,0,0,0,0,.2A1.8,1.8,0,0,0,54.57,44.89Zm22-33,.09.17a.93.93,0,0,0,.13.15,1,1,0,0,0,.71.3l.19,0,.19-.06.17-.09.16-.13a.88.88,0,0,0,.12-.15.7.7,0,0,0,.09-.17.82.82,0,0,0,.06-.19,1.36,1.36,0,0,0,0-.2,1.23,1.23,0,0,0,0-.19.6.6,0,0,0-.06-.19.56.56,0,0,0-.09-.17,1,1,0,0,0-.12-.16l-.16-.12a.56.56,0,0,0-.17-.09.6.6,0,0,0-.19-.06,1,1,0,0,0-.9.27,1,1,0,0,0-.13.16l-.09.17-.06.19a1.23,1.23,0,0,0,0,.19,1.36,1.36,0,0,0,0,.2Zm-11,0,.1.17a.57.57,0,0,0,.12.15.93.93,0,0,0,.15.13l.18.09.18.06.2,0,.2,0,.18-.06.18-.09.15-.13a.88.88,0,0,0,.12-.15.7.7,0,0,0,.09-.17.82.82,0,0,0,.06-.19.68.68,0,0,0,0-.2.62.62,0,0,0,0-.19.6.6,0,0,0-.06-.19.56.56,0,0,0-.09-.17,1,1,0,0,0-.12-.16l-.15-.12-.18-.09a.64.64,0,0,0-.18-.06,1,1,0,0,0-.91.27.61.61,0,0,0-.12.16,1,1,0,0,0-.1.17,1.05,1.05,0,0,0,0,.19.62.62,0,0,0,0,.19.68.68,0,0,0,0,.2A1.8,1.8,0,0,0,65.57,11.89Zm-11,0,.09.17a.93.93,0,0,0,.13.15l.15.13.17.09.19.06.2,0,.19,0,.19-.06.18-.09.15-.13a.88.88,0,0,0,.12-.15l.1-.17a1.8,1.8,0,0,0,0-.19.68.68,0,0,0,0-.2.62.62,0,0,0,0-.19,1.05,1.05,0,0,0,0-.19,1.78,1.78,0,0,0-.22-.33,1,1,0,0,0-.91-.27l-.19.06a.7.7,0,0,0-.17.09l-.15.12a1,1,0,0,0-.13.16l-.09.17a1.05,1.05,0,0,0,0,.19.62.62,0,0,0,0,.19.68.68,0,0,0,0,.2A1.8,1.8,0,0,0,54.57,11.89ZM89.42,88.11a.7.7,0,0,0-.09-.17s-.08-.11-.12-.15l-.16-.13-.17-.09-.19-.06a1.27,1.27,0,0,0-.39,0l-.19.06-.17.09a1.39,1.39,0,0,0-.28.28l-.09.17-.06.19a1.36,1.36,0,0,0,0,.2,1.23,1.23,0,0,0,0,.19l.06.19.09.17a1,1,0,0,0,.13.16l.15.12a.7.7,0,0,0,.17.09l.19.06.2,0a1.05,1.05,0,0,0,.71-.29l.12-.16a.56.56,0,0,0,.09-.17.6.6,0,0,0,.06-.19,1.23,1.23,0,0,0,0-.19,1.36,1.36,0,0,0,0-.2A.82.82,0,0,0,89.42,88.11ZM87.57,77.88l.09.17a1,1,0,0,0,.13.16.88.88,0,0,0,.15.12.7.7,0,0,0,.17.09l.19.06.2,0a1,1,0,0,0,1-1,1.36,1.36,0,0,0,0-.2,1.08,1.08,0,0,0-.15-.36l-.12-.15-.16-.13-.17-.09-.19-.06a1,1,0,0,0-.9.28,1,1,0,0,0-.3.71,1.23,1.23,0,0,0,0,.19Zm1.85-11.76a.76.76,0,0,0-.09-.18s-.08-.11-.12-.15a.61.61,0,0,0-.16-.12,1,1,0,0,0-.17-.1l-.19,0a1,1,0,0,0-.9.27.93.93,0,0,0-.13.15l-.09.18-.06.18a1.34,1.34,0,0,0,0,.2,1,1,0,0,0,.29.71,1,1,0,0,0,.71.29.62.62,0,0,0,.19,0,.6.6,0,0,0,.19-.06.56.56,0,0,0,.17-.09,1,1,0,0,0,.16-.12,1.05,1.05,0,0,0,.29-.71,1.36,1.36,0,0,0,0-.2A.64.64,0,0,0,89.42,66.12ZM55.3,76.51l-.19.06-.17.09-.15.13-.13.15-.09.17a1.33,1.33,0,0,0,0,.19.68.68,0,0,0,0,.2,1,1,0,0,0,.29.71,1.58,1.58,0,0,0,.15.12.7.7,0,0,0,.17.09l.19.06.2,0,.19,0a.6.6,0,0,0,.19-.06.76.76,0,0,0,.18-.09,1.58,1.58,0,0,0,.15-.12,1.78,1.78,0,0,0,.22-.33,1.05,1.05,0,0,0,0-.19.62.62,0,0,0,0-.19,1,1,0,0,0-.29-.71A1,1,0,0,0,55.3,76.51Zm1.13-10.39a1.62,1.62,0,0,0-.1-.18.57.57,0,0,0-.12-.15.79.79,0,0,0-.15-.12l-.18-.1-.18,0a1,1,0,0,0-.91.27.93.93,0,0,0-.13.15l-.09.18a1.21,1.21,0,0,0,0,.18.68.68,0,0,0,0,.2,1,1,0,0,0,1,1,.68.68,0,0,0,.2,0,.64.64,0,0,0,.18-.06.76.76,0,0,0,.18-.09,1.58,1.58,0,0,0,.15-.12,1,1,0,0,0,.29-.71.68.68,0,0,0,0-.2A1.21,1.21,0,0,0,56.43,66.12ZM87.57,55.88l.09.18.13.15a1,1,0,0,0,.71.29,1,1,0,0,0,.71-.29l.12-.15a.76.76,0,0,0,.09-.18.64.64,0,0,0,.06-.18,1,1,0,0,0,0-.4.82.82,0,0,0-.06-.19.7.7,0,0,0-.09-.17l-.12-.15a1,1,0,0,0-.71-.29,1,1,0,0,0-.71.29l-.13.15-.09.17-.06.19a1,1,0,0,0,0,.4ZM78.42,88.11a.7.7,0,0,0-.09-.17.88.88,0,0,0-.12-.15l-.16-.13-.17-.09-.19-.06a1.27,1.27,0,0,0-.39,0l-.19.06-.17.09-.15.13a.93.93,0,0,0-.13.15l-.09.17-.06.19a1.36,1.36,0,0,0,0,.2,1.23,1.23,0,0,0,0,.19l.06.19.09.17a1,1,0,0,0,.13.16l.15.12a1.08,1.08,0,0,0,.36.15l.2,0,.19,0a.6.6,0,0,0,.19-.06.56.56,0,0,0,.17-.09l.16-.12a1,1,0,0,0,.12-.16.56.56,0,0,0,.09-.17.6.6,0,0,0,.06-.19,1.23,1.23,0,0,0,0-.19,1.36,1.36,0,0,0,0-.2A.82.82,0,0,0,78.42,88.11Zm-11,0a.7.7,0,0,0-.09-.17.88.88,0,0,0-.12-.15,1,1,0,0,0-.91-.28l-.18.06-.18.09a.93.93,0,0,0-.15.13.57.57,0,0,0-.12.15l-.1.17a1.8,1.8,0,0,0,0,.19.68.68,0,0,0,0,.2.62.62,0,0,0,0,.19,1.05,1.05,0,0,0,0,.19,1,1,0,0,0,.1.17.61.61,0,0,0,.12.16l.15.12a.76.76,0,0,0,.18.09.64.64,0,0,0,.18.06l.2,0a1.05,1.05,0,0,0,.71-.29,1,1,0,0,0,.12-.16.56.56,0,0,0,.09-.17.6.6,0,0,0,.06-.19.62.62,0,0,0,0-.19.68.68,0,0,0,0-.2A.82.82,0,0,0,67.42,88.11Zm-11,0-.1-.17a.88.88,0,0,0-.12-.15l-.15-.13-.18-.09-.19-.06a1,1,0,0,0-.9.28.93.93,0,0,0-.13.15l-.09.17a1.8,1.8,0,0,0,0,.19.68.68,0,0,0,0,.2.62.62,0,0,0,0,.19,1.05,1.05,0,0,0,0,.19l.09.17a1,1,0,0,0,.13.16,1.05,1.05,0,0,0,.71.29l.19,0a.6.6,0,0,0,.19-.06.76.76,0,0,0,.18-.09l.15-.12a1.78,1.78,0,0,0,.22-.33,1.05,1.05,0,0,0,0-.19.62.62,0,0,0,0-.19.68.68,0,0,0,0-.2A1.8,1.8,0,0,0,56.43,88.11Zm22-33a.7.7,0,0,0-.09-.17,1.58,1.58,0,0,0-.12-.15,1,1,0,0,0-.71-.29,1,1,0,0,0-.71.29l-.13.15-.09.17-.06.19a1,1,0,0,0,0,.4l.06.18.09.18.13.15a1,1,0,0,0,.71.29,1,1,0,0,0,.71-.29,1.58,1.58,0,0,0,.12-.15.76.76,0,0,0,.09-.18.64.64,0,0,0,.06-.18,1,1,0,0,0,0-.4A.82.82,0,0,0,78.42,55.11Zm-11,0a.7.7,0,0,0-.09-.17,1.58,1.58,0,0,0-.12-.15,1,1,0,0,0-.91-.27l-.18,0-.18.09a.93.93,0,0,0-.15.13.79.79,0,0,0-.12.15l-.1.17a1.8,1.8,0,0,0,0,.19,1,1,0,0,0,0,.4,1.21,1.21,0,0,0,0,.18,1.62,1.62,0,0,0,.1.18.79.79,0,0,0,.12.15.57.57,0,0,0,.15.12l.18.1.18,0a.68.68,0,0,0,.2,0,1,1,0,0,0,.71-.29,1.58,1.58,0,0,0,.12-.15.76.76,0,0,0,.09-.18.64.64,0,0,0,.06-.18,1,1,0,0,0,0-.4A.82.82,0,0,0,67.42,55.11Zm-11,0-.1-.17a1.58,1.58,0,0,0-.12-.15l-.15-.13-.18-.09-.18,0a.9.9,0,0,0-.4,0l-.19,0-.17.09-.15.13-.13.15-.09.17a1.8,1.8,0,0,0,0,.19,1,1,0,0,0,0,.4,1.21,1.21,0,0,0,0,.18l.09.18.13.15.15.12.17.1.19,0a1,1,0,0,0,.4,0l.18,0,.18-.1.15-.12a.79.79,0,0,0,.12-.15,1.62,1.62,0,0,0,.1-.18,1.21,1.21,0,0,0,0-.18,1,1,0,0,0,0-.4A1.8,1.8,0,0,0,56.43,55.11ZM95,8.66V91.34A3.66,3.66,0,0,1,91.34,95H8.66A3.66,3.66,0,0,1,5,91.34V11A3.22,3.22,0,0,1,8.22,7.75H9.29a3.23,3.23,0,0,1,3.18,2.75H32.54a3.21,3.21,0,0,1,3.17-2.75h1.08A3.23,3.23,0,0,1,40,10.5h9V8.66A3.66,3.66,0,0,1,52.66,5H91.34A3.66,3.66,0,0,1,95,8.66ZM51,36.77V49H93V8.66A1.65,1.65,0,0,0,91.34,7H52.66A1.65,1.65,0,0,0,51,8.66Zm-2-16H40V43.5h9V20.75ZM40,49h9V45.5H40Zm9-36.49H40v6.24h9ZM34.5,11V49H38V11a1.21,1.21,0,0,0-1.21-1.21H35.71A1.21,1.21,0,0,0,34.5,11Zm-2,38V45.5h-20V49Zm-20-28.25V27h20V20.75h-20ZM32.5,29h-20v6.25h20Zm-20,14.5h20V37.25h-20Zm20-31h-20v6.24h20ZM7,11V49.4A3.5,3.5,0,0,1,8.66,49H10.5V11A1.21,1.21,0,0,0,9.29,9.76H8.22A1.21,1.21,0,0,0,7,11ZM8.66,93H49V51H8.66A1.65,1.65,0,0,0,7,52.66V91.34A1.65,1.65,0,0,0,8.66,93ZM93,91.34V51H51V93H91.34A1.65,1.65,0,0,0,93,91.34ZM45.43,88.11l-.09-.17a.93.93,0,0,0-.13-.15,1,1,0,0,0-1.42,0,.57.57,0,0,0-.12.15l-.1.17a1.8,1.8,0,0,0,0,.19.68.68,0,0,0,0,.2.62.62,0,0,0,0,.19,1.05,1.05,0,0,0,0,.19,1,1,0,0,0,.1.17.61.61,0,0,0,.12.16,1,1,0,0,0,1.42,0,1,1,0,0,0,.13-.16l.09-.17a1.05,1.05,0,0,0,0-.19.62.62,0,0,0,0-.19.68.68,0,0,0,0-.2A1.8,1.8,0,0,0,45.43,88.11Zm0-11-.09-.17-.13-.15-.15-.13-.17-.09-.19-.06a1,1,0,0,0-.91.28,1.58,1.58,0,0,0-.12.15l-.1.17a1.33,1.33,0,0,0,0,.19.68.68,0,0,0,0,.2,1.05,1.05,0,0,0,.29.71,1.58,1.58,0,0,0,.15.12.76.76,0,0,0,.18.09.6.6,0,0,0,.19.06l.19,0,.2,0,.19-.06a.7.7,0,0,0,.17-.09,1.58,1.58,0,0,0,.15-.12,1,1,0,0,0,.29-.71.68.68,0,0,0,0-.2A1.33,1.33,0,0,0,45.43,77.11Zm0-11-.09-.18a.93.93,0,0,0-.13-.15,1,1,0,0,0-1.42,0,.88.88,0,0,0-.12.15,1.62,1.62,0,0,0-.1.18,1.21,1.21,0,0,0,0,.18.68.68,0,0,0,0,.2,1,1,0,1,0,2,0,.68.68,0,0,0,0-.2A1.21,1.21,0,0,0,45.43,66.12ZM11.31,76.51l-.19.06-.17.09-.16.13-.12.15a1.08,1.08,0,0,0-.15.36,1.36,1.36,0,0,0,0,.2,1.05,1.05,0,0,0,.29.71,1,1,0,0,0,.16.12.56.56,0,0,0,.17.09.6.6,0,0,0,.19.06l.19,0a1,1,0,0,0,.84-.45l.09-.17.06-.19a1.23,1.23,0,0,0,0-.19,1,1,0,0,0-.3-.71A1,1,0,0,0,11.31,76.51Zm.19-9a1,1,0,0,0,.71-.29,1,1,0,0,0,.29-.71,1.34,1.34,0,0,0,0-.2l-.06-.18-.09-.18a.93.93,0,0,0-.13-.15,1,1,0,0,0-.71-.29,1,1,0,0,0-.71.29s-.08.1-.12.15a.76.76,0,0,0-.09.18.64.64,0,0,0-.06.18,1.36,1.36,0,0,0,0,.2,1.05,1.05,0,0,0,.29.71A1,1,0,0,0,11.5,67.5ZM43.57,55.88a1.62,1.62,0,0,0,.1.18.79.79,0,0,0,.12.15l.15.12.18.1.19,0a.58.58,0,0,0,.19,0,.68.68,0,0,0,.2,0l.19,0,.17-.1.15-.12.13-.15.09-.18a1.21,1.21,0,0,0,0-.18,1,1,0,0,0,0-.4,1.8,1.8,0,0,0,0-.19l-.09-.17-.13-.15-.15-.13-.17-.09-.19,0a.86.86,0,0,0-.39,0l-.19,0-.18.09-.15.13a.79.79,0,0,0-.12.15l-.1.17a1.8,1.8,0,0,0,0,.19,1,1,0,0,0,0,.4A1.21,1.21,0,0,0,43.57,55.88ZM34.43,88.11l-.1-.17a.57.57,0,0,0-.12-.15l-.15-.13-.18-.09-.18-.06a1.34,1.34,0,0,0-.4,0l-.18.06-.18.09-.15.13a.88.88,0,0,0-.12.15.7.7,0,0,0-.09.17.82.82,0,0,0-.06.19.68.68,0,0,0,0,.2.62.62,0,0,0,0,.19.6.6,0,0,0,.06.19.56.56,0,0,0,.09.17,1,1,0,0,0,.12.16l.15.12a.76.76,0,0,0,.18.09.64.64,0,0,0,.18.06l.2,0,.2,0a.64.64,0,0,0,.18-.06.76.76,0,0,0,.18-.09l.15-.12a.61.61,0,0,0,.12-.16,1,1,0,0,0,.1-.17,1.05,1.05,0,0,0,0-.19.62.62,0,0,0,0-.19.68.68,0,0,0,0-.2A1.8,1.8,0,0,0,34.43,88.11Zm-11,0-.09-.17a.93.93,0,0,0-.13-.15,1,1,0,0,0-.9-.28l-.19.06-.17.09-.16.13a.88.88,0,0,0-.12.15.7.7,0,0,0-.09.17.82.82,0,0,0-.06.19,1.36,1.36,0,0,0,0,.2,1.23,1.23,0,0,0,0,.19.6.6,0,0,0,.06.19.56.56,0,0,0,.09.17,1,1,0,0,0,.12.16l.16.12a.56.56,0,0,0,.17.09.6.6,0,0,0,.19.06l.19,0a1,1,0,0,0,.71-.29,1,1,0,0,0,.13-.16l.09-.17.06-.19a1.23,1.23,0,0,0,0-.19,1.36,1.36,0,0,0,0-.2Zm-11,0-.09-.17a1.39,1.39,0,0,0-.28-.28l-.17-.09-.19-.06a1.27,1.27,0,0,0-.39,0l-.19.06-.17.09-.16.13s-.08.1-.12.15a.7.7,0,0,0-.09.17.82.82,0,0,0-.06.19,1.36,1.36,0,0,0,0,.2,1.23,1.23,0,0,0,0,.19.6.6,0,0,0,.06.19.56.56,0,0,0,.09.17l.12.16.16.12a.56.56,0,0,0,.17.09.6.6,0,0,0,.19.06l.19,0,.2,0,.19-.06a.7.7,0,0,0,.17-.09l.15-.12a1,1,0,0,0,.13-.16l.09-.17.06-.19a1.21,1.21,0,0,0,0-.19,1.34,1.34,0,0,0,0-.2Zm22-33-.1-.17a.79.79,0,0,0-.12-.15l-.15-.13-.18-.09-.18,0a.9.9,0,0,0-.4,0l-.18,0-.18.09-.15.13a1.58,1.58,0,0,0-.12.15.7.7,0,0,0-.09.17.82.82,0,0,0-.06.19,1,1,0,0,0,0,.4.64.64,0,0,0,.06.18.76.76,0,0,0,.09.18,1.58,1.58,0,0,0,.12.15l.15.12.18.1.18,0a.71.71,0,0,0,.2,0,.68.68,0,0,0,.2,0l.18,0,.18-.1.15-.12a.79.79,0,0,0,.12-.15,1.62,1.62,0,0,0,.1-.18,1.21,1.21,0,0,0,0-.18,1,1,0,0,0,0-.4A1.8,1.8,0,0,0,34.43,55.11Zm-11,0-.09-.17-.13-.15a1,1,0,0,0-.71-.29,1,1,0,0,0-.71.29,1.58,1.58,0,0,0-.12.15.7.7,0,0,0-.09.17.82.82,0,0,0-.06.19,1,1,0,0,0,0,.4.64.64,0,0,0,.06.18.76.76,0,0,0,.09.18,1.58,1.58,0,0,0,.12.15,1,1,0,0,0,.71.29,1,1,0,0,0,.71-.29l.13-.15.09-.18.06-.18a1,1,0,0,0,0-.4Zm-12.85.77a.76.76,0,0,0,.09.18l.12.15a1,1,0,0,0,.71.29,1,1,0,0,0,.71-.29l.13-.15.09-.18.06-.18a2,2,0,0,0,0-.4l-.06-.19-.09-.17-.13-.15a1,1,0,0,0-.71-.29,1,1,0,0,0-.71.29l-.12.15a.7.7,0,0,0-.09.17.82.82,0,0,0-.06.19,1,1,0,0,0,0,.4A.64.64,0,0,0,10.58,55.88Z"/></svg>