<?xml version="1.0" encoding="UTF-8"?>
<svg xmlns="http://www.w3.org/2000/svg" xmlns:xlink="http://www.w3.org/1999/xlink" width="32px" height="32px" viewBox="0 0 32 32" version="1.1">
<g id="surface1">
<path style=" stroke:none;fill-rule:nonzero;fill:rgb(100%,100%,100%);fill-opacity:1;" d="M 31.980469 16.089844 C 31.980469 7.214844 24.824219 0.0195312 16 0.0195312 C 7.175781 0.0195312 0.0195312 7.214844 0.0195312 16.089844 C 0.0195312 24.113281 5.863281 30.761719 13.503906 31.964844 L 13.503906 20.734375 L 9.445312 20.734375 L 9.445312 16.089844 L 13.503906 16.089844 L 13.503906 12.550781 C 13.503906 8.523438 15.890625 6.296875 19.539062 6.296875 C 21.289062 6.296875 23.117188 6.613281 23.117188 6.613281 L 23.117188 10.566406 L 21.101562 10.566406 C 19.117188 10.566406 18.496094 11.804688 18.496094 13.074219 L 18.496094 16.089844 L 22.929688 16.089844 L 22.21875 20.734375 L 18.496094 20.734375 L 18.496094 31.964844 C 26.136719 30.761719 31.980469 24.113281 31.980469 16.089844 Z M 31.980469 16.089844 "/>
</g>
</svg>
