<?xml version="1.0" encoding="UTF-8"?>
<svg xmlns="http://www.w3.org/2000/svg" xmlns:xlink="http://www.w3.org/1999/xlink" width="32px" height="32px" viewBox="0 0 32 32" version="1.1">
<g id="surface1">
<path style=" stroke:none;fill-rule:nonzero;fill:rgb(100%,100%,100%);fill-opacity:1;" d="M 16 0.0195312 C 11.660156 0.0195312 11.117188 0.0390625 9.410156 0.117188 C 7.710938 0.195312 6.550781 0.464844 5.53125 0.859375 C 4.480469 1.265625 3.589844 1.8125 2.703125 2.703125 C 1.8125 3.589844 1.265625 4.480469 0.859375 5.53125 C 0.464844 6.550781 0.195312 7.710938 0.117188 9.410156 C 0.0390625 11.117188 0.0195312 11.660156 0.0195312 16 C 0.0195312 20.339844 0.0390625 20.882812 0.117188 22.589844 C 0.195312 24.289062 0.464844 25.449219 0.859375 26.46875 C 1.265625 27.519531 1.8125 28.410156 2.703125 29.296875 C 3.589844 30.1875 4.480469 30.734375 5.53125 31.140625 C 6.550781 31.535156 7.710938 31.804688 9.410156 31.882812 C 11.117188 31.960938 11.660156 31.980469 16 31.980469 C 20.339844 31.980469 20.882812 31.960938 22.589844 31.882812 C 24.289062 31.804688 25.449219 31.535156 26.46875 31.140625 C 27.519531 30.734375 28.410156 30.1875 29.296875 29.296875 C 30.1875 28.410156 30.734375 27.519531 31.140625 26.46875 C 31.535156 25.449219 31.804688 24.289062 31.882812 22.589844 C 31.960938 20.882812 31.980469 20.339844 31.980469 16 C 31.980469 11.660156 31.960938 11.117188 31.882812 9.410156 C 31.804688 7.710938 31.535156 6.550781 31.140625 5.53125 C 30.734375 4.480469 30.1875 3.589844 29.296875 2.703125 C 28.410156 1.8125 27.519531 1.265625 26.46875 0.859375 C 25.449219 0.464844 24.289062 0.195312 22.589844 0.117188 C 20.882812 0.0390625 20.339844 0.0195312 16 0.0195312 Z M 16 2.898438 C 20.265625 2.898438 20.773438 2.914062 22.457031 2.992188 C 24.015625 3.0625 24.863281 3.324219 25.425781 3.542969 C 26.171875 3.832031 26.703125 4.179688 27.261719 4.738281 C 27.820312 5.296875 28.167969 5.828125 28.457031 6.574219 C 28.675781 7.136719 28.9375 7.984375 29.007812 9.542969 C 29.085938 11.226562 29.101562 11.734375 29.101562 16 C 29.101562 20.265625 29.085938 20.773438 29.007812 22.457031 C 28.9375 24.015625 28.675781 24.863281 28.457031 25.425781 C 28.167969 26.171875 27.820312 26.703125 27.261719 27.261719 C 26.703125 27.820312 26.171875 28.167969 25.425781 28.457031 C 24.863281 28.675781 24.015625 28.9375 22.457031 29.007812 C 20.773438 29.085938 20.265625 29.101562 16 29.101562 C 11.734375 29.101562 11.226562 29.085938 9.542969 29.007812 C 7.984375 28.9375 7.136719 28.675781 6.574219 28.457031 C 5.828125 28.167969 5.296875 27.820312 4.738281 27.261719 C 4.179688 26.703125 3.832031 26.171875 3.542969 25.425781 C 3.324219 24.863281 3.0625 24.015625 2.992188 22.457031 C 2.914062 20.773438 2.898438 20.265625 2.898438 16 C 2.898438 11.734375 2.914062 11.226562 2.992188 9.542969 C 3.0625 7.984375 3.324219 7.136719 3.542969 6.574219 C 3.832031 5.828125 4.179688 5.296875 4.738281 4.738281 C 5.296875 4.179688 5.828125 3.832031 6.574219 3.542969 C 7.136719 3.324219 7.984375 3.0625 9.542969 2.992188 C 11.226562 2.914062 11.734375 2.898438 16 2.898438 Z M 16 2.898438 "/>
<path style=" stroke:none;fill-rule:nonzero;fill:rgb(100%,100%,100%);fill-opacity:1;" d="M 16 21.328125 C 13.058594 21.328125 10.671875 18.941406 10.671875 16 C 10.671875 13.058594 13.058594 10.671875 16 10.671875 C 18.941406 10.671875 21.328125 13.058594 21.328125 16 C 21.328125 18.941406 18.941406 21.328125 16 21.328125 Z M 16 7.792969 C 11.46875 7.792969 7.792969 11.46875 7.792969 16 C 7.792969 20.53125 11.46875 24.207031 16 24.207031 C 20.53125 24.207031 24.207031 20.53125 24.207031 16 C 24.207031 11.46875 20.53125 7.792969 16 7.792969 Z M 26.449219 7.46875 C 26.449219 8.527344 25.589844 9.386719 24.53125 9.386719 C 23.472656 9.386719 22.613281 8.527344 22.613281 7.46875 C 22.613281 6.410156 23.472656 5.550781 24.53125 5.550781 C 25.589844 5.550781 26.449219 6.410156 26.449219 7.46875 "/>
</g>
</svg>
