<?xml version="1.0" encoding="UTF-8"?>
<svg xmlns="http://www.w3.org/2000/svg" xmlns:xlink="http://www.w3.org/1999/xlink" width="32px" height="32px" viewBox="0 0 32 32" version="1.1">
<g id="surface1">
<path style=" stroke:none;fill-rule:nonzero;fill:rgb(100%,100%,100%);fill-opacity:1;" d="M 27.246094 27.25 L 22.507812 27.25 L 22.507812 19.84375 C 22.507812 18.078125 22.476562 15.804688 20.042969 15.804688 C 17.574219 15.804688 17.199219 17.726562 17.199219 19.714844 L 17.199219 27.25 L 12.460938 27.25 L 12.460938 12.019531 L 17.007812 12.019531 L 17.007812 14.101562 L 17.074219 14.101562 C 17.527344 13.324219 18.183594 12.683594 18.976562 12.25 C 19.765625 11.816406 20.660156 11.605469 21.558594 11.640625 C 26.363281 11.640625 27.246094 14.792969 27.246094 18.894531 Z M 7.113281 9.9375 C 6.570312 9.9375 6.039062 9.777344 5.585938 9.476562 C 5.136719 9.171875 4.78125 8.746094 4.574219 8.242188 C 4.367188 7.742188 4.3125 7.191406 4.417969 6.660156 C 4.523438 6.125 4.785156 5.636719 5.167969 5.253906 C 5.554688 4.871094 6.042969 4.609375 6.578125 4.5 C 7.109375 4.394531 7.664062 4.449219 8.164062 4.65625 C 8.667969 4.867188 9.097656 5.21875 9.398438 5.667969 C 9.703125 6.121094 9.863281 6.648438 9.863281 7.191406 C 9.863281 7.554688 9.792969 7.910156 9.65625 8.242188 C 9.515625 8.574219 9.3125 8.878906 9.058594 9.132812 C 8.804688 9.386719 8.5 9.589844 8.167969 9.726562 C 7.832031 9.867188 7.476562 9.9375 7.113281 9.9375 Z M 9.484375 27.25 L 4.742188 27.25 L 4.742188 12.019531 L 9.484375 12.019531 Z M 29.609375 0.0585938 L 2.359375 0.0585938 C 1.742188 0.0507812 1.144531 0.289062 0.703125 0.71875 C 0.261719 1.152344 0.0078125 1.742188 0 2.359375 L 0 29.667969 C 0.0078125 30.285156 0.261719 30.875 0.703125 31.304688 C 1.144531 31.738281 1.742188 31.976562 2.359375 31.96875 L 29.609375 31.96875 C 30.226562 31.976562 30.824219 31.738281 31.269531 31.308594 C 31.714844 30.875 31.96875 30.285156 31.976562 29.667969 L 31.976562 2.355469 C 31.96875 1.738281 31.714844 1.148438 31.269531 0.714844 C 30.824219 0.285156 30.226562 0.046875 29.609375 0.0546875 "/>
</g>
</svg>
